<mxfile host="app.diagrams.net" agent="Mozilla/5.0 (Windows NT 10.0; Win64; x64) AppleWebKit/537.36 (KHTML, like Gecko) Chrome/135.0.0.0 Safari/537.36" version="26.2.14">
  <diagram name="Page-1" id="156E9PM124TaZ9mMmQSC">
    <mxGraphModel dx="1188" dy="619" grid="1" gridSize="10" guides="1" tooltips="1" connect="1" arrows="1" fold="1" page="1" pageScale="1" pageWidth="850" pageHeight="1100" math="0" shadow="0">
      <root>
        <mxCell id="0" />
        <mxCell id="1" parent="0" />
        <mxCell id="GZVNiTNgzqEYje_Ixjzf-3" style="edgeStyle=orthogonalEdgeStyle;rounded=0;orthogonalLoop=1;jettySize=auto;html=1;exitX=0.5;exitY=1;exitDx=0;exitDy=0;exitPerimeter=0;" edge="1" parent="1" source="GZVNiTNgzqEYje_Ixjzf-1" target="GZVNiTNgzqEYje_Ixjzf-2">
          <mxGeometry relative="1" as="geometry" />
        </mxCell>
        <mxCell id="GZVNiTNgzqEYje_Ixjzf-1" value="&lt;b&gt;Start&lt;/b&gt;" style="strokeWidth=2;html=1;shape=mxgraph.flowchart.start_1;whiteSpace=wrap;" vertex="1" parent="1">
          <mxGeometry x="375" y="10" width="100" height="60" as="geometry" />
        </mxCell>
        <mxCell id="GZVNiTNgzqEYje_Ixjzf-5" value="" style="edgeStyle=orthogonalEdgeStyle;rounded=0;orthogonalLoop=1;jettySize=auto;html=1;" edge="1" parent="1" source="GZVNiTNgzqEYje_Ixjzf-2" target="GZVNiTNgzqEYje_Ixjzf-4">
          <mxGeometry relative="1" as="geometry" />
        </mxCell>
        <mxCell id="GZVNiTNgzqEYje_Ixjzf-9" value="" style="edgeStyle=orthogonalEdgeStyle;rounded=0;orthogonalLoop=1;jettySize=auto;html=1;" edge="1" parent="1" source="GZVNiTNgzqEYje_Ixjzf-2" target="GZVNiTNgzqEYje_Ixjzf-8">
          <mxGeometry relative="1" as="geometry" />
        </mxCell>
        <mxCell id="GZVNiTNgzqEYje_Ixjzf-2" value="&lt;b&gt;If userTemp &amp;lt; givenTemp&lt;/b&gt;" style="strokeWidth=2;html=1;shape=mxgraph.flowchart.decision;whiteSpace=wrap;" vertex="1" parent="1">
          <mxGeometry x="368" y="100" width="115" height="100" as="geometry" />
        </mxCell>
        <mxCell id="GZVNiTNgzqEYje_Ixjzf-13" style="edgeStyle=orthogonalEdgeStyle;rounded=0;orthogonalLoop=1;jettySize=auto;html=1;exitX=1;exitY=0.5;exitDx=0;exitDy=0;" edge="1" parent="1" target="GZVNiTNgzqEYje_Ixjzf-12">
          <mxGeometry relative="1" as="geometry">
            <mxPoint x="720" y="405" as="targetPoint" />
            <mxPoint x="680.5" y="155" as="sourcePoint" />
            <Array as="points">
              <mxPoint x="720" y="155" />
              <mxPoint x="720" y="390" />
            </Array>
          </mxGeometry>
        </mxCell>
        <mxCell id="GZVNiTNgzqEYje_Ixjzf-4" value="&lt;b&gt;Display, &quot;It&#39;s hot today!&quot;&amp;nbsp;&lt;/b&gt;" style="whiteSpace=wrap;html=1;strokeWidth=2;" vertex="1" parent="1">
          <mxGeometry x="560.5" y="120" width="120" height="60" as="geometry" />
        </mxCell>
        <mxCell id="GZVNiTNgzqEYje_Ixjzf-11" value="" style="edgeStyle=orthogonalEdgeStyle;rounded=0;orthogonalLoop=1;jettySize=auto;html=1;" edge="1" parent="1" source="GZVNiTNgzqEYje_Ixjzf-8" target="GZVNiTNgzqEYje_Ixjzf-10">
          <mxGeometry relative="1" as="geometry" />
        </mxCell>
        <mxCell id="GZVNiTNgzqEYje_Ixjzf-20" style="edgeStyle=orthogonalEdgeStyle;rounded=0;orthogonalLoop=1;jettySize=auto;html=1;exitX=0.5;exitY=1;exitDx=0;exitDy=0;exitPerimeter=0;" edge="1" parent="1" source="GZVNiTNgzqEYje_Ixjzf-8" target="GZVNiTNgzqEYje_Ixjzf-12">
          <mxGeometry relative="1" as="geometry" />
        </mxCell>
        <mxCell id="GZVNiTNgzqEYje_Ixjzf-8" value="&lt;b&gt;If userTemp &amp;gt; givenTemp&lt;/b&gt;" style="strokeWidth=2;html=1;shape=mxgraph.flowchart.decision;whiteSpace=wrap;" vertex="1" parent="1">
          <mxGeometry x="368" y="230" width="115" height="100" as="geometry" />
        </mxCell>
        <mxCell id="GZVNiTNgzqEYje_Ixjzf-15" style="edgeStyle=orthogonalEdgeStyle;rounded=0;orthogonalLoop=1;jettySize=auto;html=1;exitX=1;exitY=0.5;exitDx=0;exitDy=0;" edge="1" parent="1" source="GZVNiTNgzqEYje_Ixjzf-10">
          <mxGeometry relative="1" as="geometry">
            <mxPoint x="720" y="280" as="targetPoint" />
          </mxGeometry>
        </mxCell>
        <mxCell id="GZVNiTNgzqEYje_Ixjzf-10" value="&lt;b&gt;Diplay, &quot;It&#39;s cold today!&quot;&lt;/b&gt;" style="whiteSpace=wrap;html=1;strokeWidth=2;" vertex="1" parent="1">
          <mxGeometry x="560.5" y="250" width="120" height="60" as="geometry" />
        </mxCell>
        <mxCell id="GZVNiTNgzqEYje_Ixjzf-12" value="&lt;b&gt;End&lt;/b&gt;" style="strokeWidth=2;html=1;shape=mxgraph.flowchart.start_1;whiteSpace=wrap;" vertex="1" parent="1">
          <mxGeometry x="375" y="360" width="100" height="60" as="geometry" />
        </mxCell>
      </root>
    </mxGraphModel>
  </diagram>
</mxfile>
